<svg xmlns="http://www.w3.org/2000/svg" xmlns:xlink="http://www.w3.org/1999/xlink" width="250" zoomAndPan="magnify" viewBox="0 0 187.5 187.499992" height="250" preserveAspectRatio="xMidYMid meet" version="1.0"><defs><clipPath id="74c9a75191"><path d="M 18.699219 123 L 64 123 L 64 168.300781 L 18.699219 168.300781 Z M 18.699219 123 " clip-rule="nonzero"/></clipPath><clipPath id="7d1664d0ce"><path d="M 123 123 L 168.300781 123 L 168.300781 168.300781 L 123 168.300781 Z M 123 123 " clip-rule="nonzero"/></clipPath><clipPath id="ba3d3cccc2"><path d="M 123 18.699219 L 168.300781 18.699219 L 168.300781 64 L 123 64 Z M 123 18.699219 " clip-rule="nonzero"/></clipPath><clipPath id="e3ca150c03"><path d="M 18.699219 18.699219 L 64 18.699219 L 64 64 L 18.699219 64 Z M 18.699219 18.699219 " clip-rule="nonzero"/></clipPath></defs><path fill="#ffffff" d="M 0 0 L 187 0 L 187 187 L 0 187 Z M 0 0 " fill-opacity="1" fill-rule="nonzero"/><path fill="#4438ca" d="M 0 0 L 187 0 L 187 187 L 0 187 Z M 0 0 " fill-opacity="1" fill-rule="nonzero"/><g clip-path="url(#74c9a75191)"><path fill="#ffffff" d="M 58.59375 168.300781 L 33.660156 168.300781 C 33.171875 168.300781 32.679688 168.277344 32.195312 168.230469 C 31.707031 168.179688 31.222656 168.109375 30.742188 168.015625 C 30.261719 167.917969 29.785156 167.800781 29.316406 167.65625 C 28.847656 167.515625 28.386719 167.351562 27.933594 167.160156 C 27.484375 166.976562 27.039062 166.765625 26.609375 166.535156 C 26.175781 166.304688 25.757812 166.050781 25.347656 165.78125 C 24.941406 165.507812 24.546875 165.214844 24.171875 164.90625 C 23.792969 164.59375 23.429688 164.265625 23.082031 163.917969 C 22.734375 163.574219 22.40625 163.210938 22.097656 162.832031 C 21.785156 162.453125 21.496094 162.058594 21.222656 161.652344 C 20.949219 161.246094 20.699219 160.824219 20.46875 160.394531 C 20.234375 159.960938 20.027344 159.519531 19.839844 159.066406 C 19.652344 158.613281 19.488281 158.152344 19.34375 157.683594 C 19.203125 157.214844 19.082031 156.738281 18.988281 156.261719 C 18.890625 155.777344 18.820312 155.296875 18.773438 154.808594 C 18.722656 154.320312 18.699219 153.832031 18.699219 153.339844 L 18.699219 128.40625 C 18.699219 128.082031 18.730469 127.757812 18.796875 127.433594 C 18.859375 127.113281 18.953125 126.800781 19.082031 126.5 C 19.203125 126.195312 19.359375 125.910156 19.539062 125.636719 C 19.722656 125.363281 19.929688 125.113281 20.160156 124.882812 C 20.390625 124.652344 20.644531 124.441406 20.917969 124.261719 C 21.1875 124.078125 21.476562 123.925781 21.777344 123.800781 C 22.082031 123.675781 22.394531 123.578125 22.714844 123.515625 C 23.035156 123.453125 23.359375 123.421875 23.6875 123.421875 C 24.015625 123.421875 24.339844 123.453125 24.660156 123.515625 C 24.980469 123.578125 25.292969 123.675781 25.597656 123.800781 C 25.898438 123.925781 26.183594 124.078125 26.457031 124.261719 C 26.730469 124.441406 26.980469 124.652344 27.214844 124.882812 C 27.445312 125.113281 27.652344 125.363281 27.832031 125.636719 C 28.015625 125.910156 28.167969 126.195312 28.292969 126.5 C 28.417969 126.800781 28.515625 127.113281 28.578125 127.433594 C 28.640625 127.757812 28.671875 128.082031 28.671875 128.40625 L 28.671875 153.339844 C 28.671875 153.667969 28.703125 153.992188 28.769531 154.3125 C 28.832031 154.632812 28.925781 154.945312 29.054688 155.25 C 29.179688 155.550781 29.332031 155.839844 29.511719 156.113281 C 29.695312 156.382812 29.902344 156.636719 30.132812 156.867188 C 30.367188 157.097656 30.617188 157.304688 30.890625 157.488281 C 31.164062 157.667969 31.449219 157.824219 31.75 157.949219 C 32.054688 158.074219 32.367188 158.167969 32.6875 158.230469 C 33.007812 158.296875 33.332031 158.328125 33.660156 158.328125 L 58.59375 158.328125 C 58.921875 158.328125 59.246094 158.359375 59.566406 158.421875 C 59.886719 158.488281 60.199219 158.582031 60.503906 158.707031 C 60.804688 158.832031 61.089844 158.988281 61.363281 159.167969 C 61.636719 159.351562 61.886719 159.558594 62.121094 159.789062 C 62.351562 160.019531 62.558594 160.269531 62.742188 160.542969 C 62.921875 160.816406 63.074219 161.101562 63.199219 161.40625 C 63.328125 161.710938 63.421875 162.019531 63.484375 162.34375 C 63.546875 162.664062 63.582031 162.988281 63.582031 163.316406 C 63.582031 163.640625 63.546875 163.964844 63.484375 164.285156 C 63.421875 164.609375 63.328125 164.917969 63.199219 165.222656 C 63.074219 165.527344 62.921875 165.8125 62.742188 166.085938 C 62.558594 166.359375 62.351562 166.609375 62.121094 166.839844 C 61.886719 167.070312 61.636719 167.277344 61.363281 167.460938 C 61.089844 167.640625 60.804688 167.796875 60.503906 167.921875 C 60.199219 168.046875 59.886719 168.140625 59.566406 168.203125 C 59.246094 168.269531 58.921875 168.300781 58.59375 168.300781 Z M 58.59375 168.300781 " fill-opacity="1" fill-rule="nonzero"/></g><g clip-path="url(#7d1664d0ce)"><path fill="#ffffff" d="M 153.339844 168.300781 L 128.40625 168.300781 C 128.082031 168.300781 127.757812 168.269531 127.433594 168.203125 C 127.113281 168.140625 126.800781 168.046875 126.5 167.921875 C 126.195312 167.796875 125.910156 167.640625 125.636719 167.460938 C 125.363281 167.277344 125.113281 167.070312 124.882812 166.839844 C 124.652344 166.609375 124.441406 166.359375 124.261719 166.085938 C 124.078125 165.8125 123.925781 165.527344 123.800781 165.222656 C 123.675781 164.917969 123.578125 164.609375 123.515625 164.285156 C 123.453125 163.964844 123.421875 163.640625 123.421875 163.316406 C 123.421875 162.988281 123.453125 162.664062 123.515625 162.34375 C 123.578125 162.019531 123.675781 161.710938 123.800781 161.40625 C 123.925781 161.101562 124.078125 160.816406 124.261719 160.542969 C 124.441406 160.269531 124.652344 160.019531 124.882812 159.789062 C 125.113281 159.558594 125.363281 159.351562 125.636719 159.167969 C 125.910156 158.988281 126.195312 158.832031 126.5 158.707031 C 126.800781 158.582031 127.113281 158.488281 127.433594 158.421875 C 127.757812 158.359375 128.082031 158.328125 128.40625 158.328125 L 153.339844 158.328125 C 153.667969 158.328125 153.992188 158.296875 154.3125 158.230469 C 154.632812 158.167969 154.945312 158.074219 155.25 157.949219 C 155.550781 157.824219 155.839844 157.667969 156.113281 157.488281 C 156.382812 157.304688 156.636719 157.097656 156.867188 156.867188 C 157.097656 156.636719 157.304688 156.382812 157.488281 156.113281 C 157.667969 155.839844 157.824219 155.550781 157.949219 155.25 C 158.074219 154.945312 158.167969 154.632812 158.230469 154.3125 C 158.296875 153.992188 158.328125 153.667969 158.328125 153.339844 L 158.328125 128.40625 C 158.328125 128.082031 158.359375 127.757812 158.421875 127.433594 C 158.488281 127.113281 158.582031 126.800781 158.707031 126.5 C 158.832031 126.195312 158.988281 125.910156 159.167969 125.636719 C 159.351562 125.363281 159.558594 125.113281 159.789062 124.882812 C 160.019531 124.652344 160.269531 124.441406 160.542969 124.261719 C 160.816406 124.078125 161.101562 123.925781 161.40625 123.800781 C 161.710938 123.675781 162.019531 123.578125 162.34375 123.515625 C 162.664062 123.453125 162.988281 123.421875 163.316406 123.421875 C 163.640625 123.421875 163.964844 123.453125 164.285156 123.515625 C 164.609375 123.578125 164.917969 123.675781 165.222656 123.800781 C 165.527344 123.925781 165.8125 124.078125 166.085938 124.261719 C 166.359375 124.441406 166.609375 124.652344 166.839844 124.882812 C 167.070312 125.113281 167.277344 125.363281 167.460938 125.636719 C 167.640625 125.910156 167.796875 126.195312 167.921875 126.5 C 168.046875 126.800781 168.140625 127.113281 168.203125 127.433594 C 168.269531 127.757812 168.300781 128.082031 168.300781 128.40625 L 168.300781 153.339844 C 168.300781 153.832031 168.277344 154.320312 168.230469 154.808594 C 168.179688 155.296875 168.109375 155.777344 168.015625 156.261719 C 167.917969 156.738281 167.800781 157.214844 167.65625 157.683594 C 167.515625 158.152344 167.351562 158.613281 167.160156 159.066406 C 166.976562 159.519531 166.765625 159.960938 166.535156 160.394531 C 166.304688 160.824219 166.050781 161.246094 165.78125 161.652344 C 165.507812 162.058594 165.214844 162.453125 164.90625 162.832031 C 164.59375 163.210938 164.265625 163.574219 163.917969 163.917969 C 163.574219 164.265625 163.210938 164.59375 162.832031 164.90625 C 162.453125 165.214844 162.058594 165.507812 161.652344 165.78125 C 161.246094 166.050781 160.824219 166.304688 160.394531 166.535156 C 159.960938 166.765625 159.519531 166.976562 159.066406 167.160156 C 158.613281 167.351562 158.152344 167.515625 157.683594 167.65625 C 157.214844 167.800781 156.738281 167.917969 156.261719 168.015625 C 155.777344 168.109375 155.296875 168.179688 154.808594 168.230469 C 154.320312 168.277344 153.832031 168.300781 153.339844 168.300781 Z M 153.339844 168.300781 " fill-opacity="1" fill-rule="nonzero"/></g><g clip-path="url(#ba3d3cccc2)"><path fill="#ffffff" d="M 163.316406 63.582031 C 162.988281 63.582031 162.664062 63.546875 162.34375 63.484375 C 162.019531 63.421875 161.710938 63.328125 161.40625 63.199219 C 161.101562 63.074219 160.816406 62.921875 160.542969 62.742188 C 160.269531 62.558594 160.019531 62.351562 159.789062 62.121094 C 159.558594 61.886719 159.351562 61.636719 159.167969 61.363281 C 158.988281 61.089844 158.832031 60.804688 158.707031 60.503906 C 158.582031 60.199219 158.488281 59.886719 158.421875 59.566406 C 158.359375 59.246094 158.328125 58.921875 158.328125 58.59375 L 158.328125 33.660156 C 158.328125 33.332031 158.296875 33.007812 158.230469 32.6875 C 158.167969 32.367188 158.074219 32.054688 157.949219 31.75 C 157.824219 31.449219 157.667969 31.164062 157.488281 30.890625 C 157.304688 30.617188 157.097656 30.367188 156.867188 30.132812 C 156.636719 29.902344 156.382812 29.695312 156.113281 29.511719 C 155.839844 29.332031 155.550781 29.179688 155.25 29.054688 C 154.945312 28.925781 154.632812 28.832031 154.3125 28.769531 C 153.992188 28.703125 153.667969 28.671875 153.339844 28.671875 L 128.40625 28.671875 C 128.082031 28.671875 127.757812 28.640625 127.433594 28.578125 C 127.113281 28.515625 126.800781 28.417969 126.5 28.292969 C 126.195312 28.167969 125.910156 28.015625 125.636719 27.832031 C 125.363281 27.652344 125.113281 27.445312 124.882812 27.214844 C 124.652344 26.980469 124.441406 26.730469 124.261719 26.457031 C 124.078125 26.183594 123.925781 25.898438 123.800781 25.597656 C 123.675781 25.292969 123.578125 24.980469 123.515625 24.660156 C 123.453125 24.339844 123.421875 24.015625 123.421875 23.6875 C 123.421875 23.359375 123.453125 23.035156 123.515625 22.714844 C 123.578125 22.394531 123.675781 22.082031 123.800781 21.777344 C 123.925781 21.476562 124.078125 21.1875 124.261719 20.917969 C 124.441406 20.644531 124.652344 20.390625 124.882812 20.160156 C 125.113281 19.929688 125.363281 19.722656 125.636719 19.539062 C 125.910156 19.359375 126.195312 19.203125 126.5 19.082031 C 126.800781 18.953125 127.113281 18.859375 127.433594 18.796875 C 127.757812 18.730469 128.082031 18.699219 128.40625 18.699219 L 153.339844 18.699219 C 153.832031 18.699219 154.320312 18.722656 154.808594 18.773438 C 155.296875 18.820312 155.777344 18.890625 156.261719 18.988281 C 156.738281 19.082031 157.214844 19.203125 157.683594 19.34375 C 158.152344 19.488281 158.613281 19.652344 159.066406 19.839844 C 159.519531 20.027344 159.960938 20.234375 160.394531 20.46875 C 160.824219 20.699219 161.246094 20.949219 161.652344 21.222656 C 162.058594 21.496094 162.453125 21.785156 162.832031 22.097656 C 163.210938 22.40625 163.574219 22.734375 163.917969 23.082031 C 164.265625 23.429688 164.59375 23.792969 164.90625 24.167969 C 165.214844 24.546875 165.507812 24.941406 165.78125 25.347656 C 166.050781 25.757812 166.304688 26.175781 166.535156 26.609375 C 166.765625 27.039062 166.976562 27.484375 167.160156 27.933594 C 167.351562 28.386719 167.515625 28.847656 167.65625 29.316406 C 167.800781 29.785156 167.917969 30.261719 168.015625 30.742188 C 168.109375 31.222656 168.179688 31.707031 168.230469 32.195312 C 168.277344 32.679688 168.300781 33.171875 168.300781 33.660156 L 168.300781 58.59375 C 168.300781 58.921875 168.269531 59.246094 168.203125 59.566406 C 168.140625 59.886719 168.046875 60.199219 167.921875 60.503906 C 167.796875 60.804688 167.640625 61.089844 167.460938 61.363281 C 167.277344 61.636719 167.070312 61.886719 166.839844 62.121094 C 166.609375 62.351562 166.359375 62.558594 166.085938 62.742188 C 165.8125 62.921875 165.527344 63.074219 165.222656 63.199219 C 164.917969 63.328125 164.609375 63.421875 164.285156 63.484375 C 163.964844 63.546875 163.640625 63.582031 163.316406 63.582031 Z M 163.316406 63.582031 " fill-opacity="1" fill-rule="nonzero"/></g><g clip-path="url(#e3ca150c03)"><path fill="#ffffff" d="M 23.6875 63.582031 C 23.359375 63.582031 23.035156 63.546875 22.714844 63.484375 C 22.394531 63.421875 22.082031 63.328125 21.777344 63.199219 C 21.476562 63.074219 21.1875 62.921875 20.917969 62.742188 C 20.644531 62.558594 20.390625 62.351562 20.160156 62.121094 C 19.929688 61.886719 19.722656 61.636719 19.539062 61.363281 C 19.359375 61.089844 19.203125 60.804688 19.082031 60.503906 C 18.953125 60.199219 18.859375 59.886719 18.796875 59.566406 C 18.730469 59.246094 18.699219 58.921875 18.699219 58.59375 L 18.699219 33.660156 C 18.699219 33.171875 18.722656 32.679688 18.773438 32.195312 C 18.820312 31.707031 18.890625 31.222656 18.988281 30.742188 C 19.082031 30.261719 19.203125 29.785156 19.34375 29.316406 C 19.488281 28.847656 19.652344 28.386719 19.839844 27.933594 C 20.027344 27.484375 20.234375 27.039062 20.46875 26.609375 C 20.699219 26.175781 20.949219 25.757812 21.222656 25.347656 C 21.496094 24.941406 21.785156 24.546875 22.097656 24.167969 C 22.40625 23.792969 22.734375 23.429688 23.082031 23.082031 C 23.429688 22.734375 23.792969 22.40625 24.171875 22.097656 C 24.546875 21.785156 24.941406 21.496094 25.347656 21.222656 C 25.757812 20.949219 26.175781 20.699219 26.609375 20.46875 C 27.039062 20.234375 27.484375 20.027344 27.933594 19.839844 C 28.386719 19.652344 28.847656 19.488281 29.316406 19.34375 C 29.785156 19.203125 30.261719 19.082031 30.742188 18.988281 C 31.222656 18.890625 31.707031 18.820312 32.195312 18.773438 C 32.679688 18.722656 33.171875 18.699219 33.660156 18.699219 L 58.59375 18.699219 C 58.921875 18.699219 59.246094 18.730469 59.566406 18.796875 C 59.886719 18.859375 60.199219 18.953125 60.503906 19.082031 C 60.804688 19.203125 61.089844 19.359375 61.363281 19.539062 C 61.636719 19.722656 61.886719 19.929688 62.121094 20.160156 C 62.351562 20.390625 62.558594 20.644531 62.742188 20.917969 C 62.921875 21.1875 63.074219 21.476562 63.199219 21.777344 C 63.328125 22.082031 63.421875 22.394531 63.484375 22.714844 C 63.546875 23.035156 63.582031 23.359375 63.582031 23.6875 C 63.582031 24.015625 63.546875 24.339844 63.484375 24.660156 C 63.421875 24.980469 63.328125 25.292969 63.199219 25.597656 C 63.074219 25.898438 62.921875 26.183594 62.742188 26.457031 C 62.558594 26.730469 62.351562 26.980469 62.121094 27.214844 C 61.886719 27.445312 61.636719 27.652344 61.363281 27.832031 C 61.089844 28.015625 60.804688 28.167969 60.503906 28.292969 C 60.199219 28.417969 59.886719 28.515625 59.566406 28.578125 C 59.246094 28.640625 58.921875 28.671875 58.59375 28.671875 L 33.660156 28.671875 C 33.332031 28.671875 33.007812 28.703125 32.6875 28.769531 C 32.367188 28.832031 32.054688 28.925781 31.75 29.054688 C 31.449219 29.179688 31.164062 29.332031 30.890625 29.511719 C 30.617188 29.695312 30.367188 29.902344 30.132812 30.132812 C 29.902344 30.367188 29.695312 30.617188 29.511719 30.890625 C 29.332031 31.164062 29.179688 31.449219 29.054688 31.75 C 28.925781 32.054688 28.832031 32.367188 28.769531 32.6875 C 28.703125 33.007812 28.671875 33.332031 28.671875 33.660156 L 28.671875 58.59375 C 28.671875 58.921875 28.640625 59.246094 28.578125 59.566406 C 28.515625 59.886719 28.417969 60.199219 28.292969 60.503906 C 28.167969 60.804688 28.015625 61.089844 27.832031 61.363281 C 27.652344 61.636719 27.445312 61.886719 27.214844 62.121094 C 26.980469 62.351562 26.730469 62.558594 26.457031 62.742188 C 26.183594 62.921875 25.898438 63.074219 25.597656 63.199219 C 25.292969 63.328125 24.980469 63.421875 24.660156 63.484375 C 24.339844 63.546875 24.015625 63.582031 23.6875 63.582031 Z M 23.6875 63.582031 " fill-opacity="1" fill-rule="nonzero"/></g><path fill="#ffffff" d="M 123.421875 73.554688 C 123.421875 74.042969 123.410156 74.53125 123.386719 75.023438 C 123.359375 75.511719 123.324219 76 123.277344 76.488281 C 123.230469 76.972656 123.167969 77.460938 123.097656 77.945312 C 123.023438 78.429688 122.941406 78.910156 122.847656 79.390625 C 122.75 79.871094 122.644531 80.347656 122.523438 80.824219 C 122.40625 81.296875 122.273438 81.769531 122.132812 82.238281 C 121.992188 82.707031 121.835938 83.171875 121.671875 83.632812 C 121.507812 84.09375 121.332031 84.550781 121.140625 85.003906 C 120.957031 85.457031 120.757812 85.902344 120.550781 86.347656 C 120.339844 86.789062 120.117188 87.226562 119.886719 87.660156 C 119.65625 88.089844 119.414062 88.515625 119.164062 88.9375 C 118.914062 89.355469 118.652344 89.769531 118.378906 90.175781 C 118.105469 90.582031 117.824219 90.984375 117.535156 91.375 C 117.242188 91.769531 116.941406 92.15625 116.628906 92.535156 C 116.316406 92.914062 116 93.285156 115.667969 93.648438 C 115.339844 94.011719 115.003906 94.363281 114.65625 94.710938 C 114.3125 95.058594 113.957031 95.394531 113.59375 95.722656 C 113.230469 96.050781 112.859375 96.371094 112.480469 96.683594 C 112.101562 96.992188 111.71875 97.292969 111.324219 97.585938 C 110.929688 97.878906 110.53125 98.160156 110.125 98.429688 C 109.71875 98.703125 109.300781 98.964844 108.882812 99.214844 C 108.460938 99.46875 108.035156 99.710938 107.605469 99.941406 C 107.171875 100.171875 106.734375 100.390625 106.292969 100.601562 C 105.851562 100.8125 105.402344 101.007812 104.953125 101.195312 C 104.496094 101.382812 104.042969 101.558594 103.578125 101.726562 C 103.117188 101.890625 102.65625 102.042969 102.183594 102.183594 C 101.71875 102.328125 101.246094 102.457031 100.769531 102.578125 C 100.296875 102.695312 99.816406 102.804688 99.339844 102.898438 C 98.859375 102.992188 98.375 103.078125 97.890625 103.148438 C 97.40625 103.222656 96.921875 103.28125 96.433594 103.332031 C 95.945312 103.378906 95.457031 103.414062 94.96875 103.4375 C 94.480469 103.460938 93.988281 103.472656 93.5 103.472656 C 93.011719 103.472656 92.523438 103.460938 92.03125 103.4375 C 91.542969 103.414062 91.054688 103.378906 90.566406 103.332031 C 90.082031 103.28125 89.59375 103.222656 89.109375 103.148438 C 88.625 103.078125 88.144531 102.992188 87.664062 102.898438 C 87.183594 102.804688 86.707031 102.695312 86.230469 102.578125 C 85.753906 102.457031 85.285156 102.328125 84.816406 102.183594 C 84.347656 102.042969 83.882812 101.890625 83.421875 101.726562 C 82.960938 101.558594 82.503906 101.382812 82.050781 101.195312 C 81.597656 101.007812 81.152344 100.8125 80.707031 100.601562 C 80.265625 100.390625 79.828125 100.171875 79.394531 99.941406 C 78.964844 99.710938 78.539062 99.46875 78.117188 99.214844 C 77.699219 98.964844 77.285156 98.703125 76.878906 98.429688 C 76.472656 98.160156 76.070312 97.878906 75.679688 97.585938 C 75.285156 97.292969 74.898438 96.992188 74.519531 96.683594 C 74.140625 96.371094 73.769531 96.050781 73.40625 95.722656 C 73.042969 95.394531 72.691406 95.058594 72.34375 94.710938 C 71.996094 94.363281 71.660156 94.011719 71.332031 93.648438 C 71.003906 93.285156 70.683594 92.914062 70.371094 92.535156 C 70.0625 92.15625 69.761719 91.769531 69.46875 91.375 C 69.175781 90.984375 68.894531 90.582031 68.625 90.175781 C 68.351562 89.769531 68.089844 89.355469 67.835938 88.9375 C 67.585938 88.515625 67.34375 88.089844 67.113281 87.660156 C 66.882812 87.226562 66.664062 86.789062 66.453125 86.347656 C 66.242188 85.902344 66.046875 85.457031 65.859375 85.003906 C 65.671875 84.550781 65.492188 84.09375 65.328125 83.632812 C 65.164062 83.171875 65.011719 82.707031 64.871094 82.238281 C 64.726562 81.769531 64.597656 81.296875 64.476562 80.824219 C 64.359375 80.347656 64.25 79.871094 64.15625 79.390625 C 64.058594 78.910156 63.976562 78.429688 63.90625 77.945312 C 63.832031 77.460938 63.773438 76.972656 63.722656 76.488281 C 63.675781 76 63.640625 75.511719 63.617188 75.023438 C 63.59375 74.53125 63.582031 74.042969 63.582031 73.554688 C 63.582031 73.066406 63.59375 72.574219 63.617188 72.085938 C 63.640625 71.597656 63.675781 71.109375 63.722656 70.621094 C 63.773438 70.132812 63.832031 69.648438 63.90625 69.164062 C 63.976562 68.679688 64.058594 68.195312 64.15625 67.714844 C 64.25 67.234375 64.359375 66.757812 64.476562 66.285156 C 64.597656 65.808594 64.726562 65.335938 64.871094 64.871094 C 65.011719 64.398438 65.164062 63.9375 65.328125 63.472656 C 65.492188 63.011719 65.671875 62.554688 65.859375 62.101562 C 66.046875 61.652344 66.242188 61.203125 66.453125 60.761719 C 66.664062 60.320312 66.882812 59.882812 67.113281 59.449219 C 67.34375 59.019531 67.585938 58.59375 67.835938 58.171875 C 68.089844 57.753906 68.351562 57.335938 68.625 56.929688 C 68.894531 56.523438 69.175781 56.125 69.46875 55.730469 C 69.761719 55.335938 70.0625 54.953125 70.371094 54.574219 C 70.683594 54.195312 71.003906 53.824219 71.332031 53.460938 C 71.660156 53.097656 71.996094 52.742188 72.34375 52.398438 C 72.691406 52.050781 73.042969 51.714844 73.40625 51.386719 C 73.769531 51.054688 74.140625 50.738281 74.519531 50.425781 C 74.898438 50.113281 75.285156 49.8125 75.679688 49.519531 C 76.070312 49.230469 76.472656 48.949219 76.878906 48.675781 C 77.285156 48.402344 77.699219 48.140625 78.117188 47.890625 C 78.539062 47.636719 78.964844 47.398438 79.394531 47.167969 C 79.828125 46.9375 80.265625 46.714844 80.707031 46.503906 C 81.152344 46.296875 81.597656 46.097656 82.050781 45.910156 C 82.503906 45.722656 82.960938 45.546875 83.421875 45.382812 C 83.882812 45.21875 84.347656 45.0625 84.816406 44.921875 C 85.285156 44.78125 85.753906 44.648438 86.230469 44.53125 C 86.707031 44.410156 87.183594 44.304688 87.664062 44.207031 C 88.144531 44.113281 88.625 44.03125 89.109375 43.957031 C 89.59375 43.886719 90.082031 43.824219 90.566406 43.777344 C 91.054688 43.730469 91.542969 43.695312 92.03125 43.667969 C 92.523438 43.644531 93.011719 43.632812 93.5 43.632812 C 93.988281 43.632812 94.480469 43.644531 94.96875 43.667969 C 95.457031 43.695312 95.945312 43.730469 96.433594 43.777344 C 96.921875 43.824219 97.40625 43.886719 97.890625 43.957031 C 98.375 44.03125 98.859375 44.113281 99.339844 44.207031 C 99.816406 44.304688 100.296875 44.410156 100.769531 44.53125 C 101.246094 44.648438 101.71875 44.78125 102.183594 44.921875 C 102.65625 45.0625 103.117188 45.21875 103.578125 45.382812 C 104.042969 45.546875 104.496094 45.722656 104.953125 45.910156 C 105.402344 46.097656 105.851562 46.296875 106.292969 46.503906 C 106.734375 46.714844 107.171875 46.9375 107.605469 47.167969 C 108.035156 47.398438 108.460938 47.636719 108.882812 47.890625 C 109.300781 48.140625 109.71875 48.402344 110.125 48.675781 C 110.53125 48.949219 110.929688 49.230469 111.324219 49.519531 C 111.71875 49.8125 112.101562 50.113281 112.480469 50.425781 C 112.859375 50.738281 113.230469 51.054688 113.59375 51.386719 C 113.957031 51.714844 114.3125 52.050781 114.65625 52.398438 C 115.003906 52.742188 115.339844 53.097656 115.667969 53.460938 C 116 53.824219 116.316406 54.195312 116.628906 54.574219 C 116.941406 54.953125 117.242188 55.335938 117.535156 55.730469 C 117.824219 56.125 118.105469 56.523438 118.378906 56.929688 C 118.652344 57.335938 118.914062 57.753906 119.164062 58.171875 C 119.414062 58.59375 119.65625 59.019531 119.886719 59.449219 C 120.117188 59.882812 120.339844 60.320312 120.550781 60.761719 C 120.757812 61.203125 120.957031 61.652344 121.140625 62.101562 C 121.332031 62.554688 121.507812 63.011719 121.671875 63.472656 C 121.835938 63.9375 121.992188 64.398438 122.132812 64.871094 C 122.273438 65.335938 122.40625 65.808594 122.523438 66.285156 C 122.644531 66.757812 122.75 67.234375 122.847656 67.714844 C 122.941406 68.195312 123.023438 68.679688 123.097656 69.164062 C 123.167969 69.648438 123.230469 70.132812 123.277344 70.621094 C 123.324219 71.109375 123.359375 71.597656 123.386719 72.085938 C 123.410156 72.574219 123.421875 73.066406 123.421875 73.554688 Z M 123.421875 73.554688 " fill-opacity="1" fill-rule="nonzero"/><path fill="#ffffff" d="M 138.382812 138.382812 C 138.382812 138.707031 138.347656 139.03125 138.285156 139.351562 C 138.222656 139.675781 138.128906 139.984375 138 140.289062 C 137.875 140.59375 137.722656 140.878906 137.542969 141.152344 C 137.359375 141.425781 137.152344 141.675781 136.921875 141.90625 C 136.6875 142.136719 136.4375 142.34375 136.164062 142.527344 C 135.890625 142.707031 135.605469 142.863281 135.304688 142.988281 C 135 143.113281 134.6875 143.207031 134.367188 143.269531 C 134.046875 143.335938 133.722656 143.367188 133.394531 143.367188 L 53.605469 143.367188 C 53.28125 143.367188 52.957031 143.335938 52.632812 143.269531 C 52.3125 143.207031 52.003906 143.113281 51.699219 142.988281 C 51.394531 142.863281 51.109375 142.707031 50.835938 142.527344 C 50.5625 142.34375 50.3125 142.136719 50.082031 141.90625 C 49.851562 141.675781 49.644531 141.425781 49.460938 141.152344 C 49.28125 140.878906 49.125 140.59375 49 140.289062 C 48.875 139.984375 48.78125 139.675781 48.714844 139.351562 C 48.652344 139.03125 48.621094 138.707031 48.621094 138.382812 C 48.621094 136.660156 48.71875 134.941406 48.917969 133.230469 C 49.117188 131.519531 49.410156 129.824219 49.804688 128.148438 C 50.199219 126.472656 50.6875 124.824219 51.269531 123.199219 C 51.851562 121.582031 52.527344 120 53.289062 118.457031 C 54.054688 116.914062 54.910156 115.417969 55.84375 113.972656 C 56.78125 112.527344 57.800781 111.140625 58.894531 109.8125 C 59.992188 108.484375 61.160156 107.226562 62.402344 106.03125 C 63.644531 104.835938 64.953125 103.71875 66.324219 102.675781 C 66.777344 103.101562 67.242188 103.519531 67.714844 103.925781 C 68.191406 104.332031 68.671875 104.726562 69.167969 105.105469 C 69.660156 105.492188 70.160156 105.863281 70.671875 106.21875 C 71.179688 106.578125 71.699219 106.925781 72.226562 107.261719 C 72.753906 107.59375 73.289062 107.917969 73.828125 108.226562 C 74.371094 108.535156 74.917969 108.832031 75.476562 109.117188 C 76.03125 109.398438 76.59375 109.667969 77.160156 109.925781 C 77.730469 110.183594 78.304688 110.425781 78.882812 110.65625 C 79.464844 110.886719 80.050781 111.101562 80.640625 111.304688 C 81.230469 111.503906 81.824219 111.695312 82.421875 111.867188 C 83.023438 112.042969 83.625 112.203125 84.230469 112.347656 C 84.835938 112.492188 85.445312 112.625 86.058594 112.742188 C 86.671875 112.859375 87.289062 112.960938 87.90625 113.050781 C 88.523438 113.140625 89.140625 113.210938 89.765625 113.269531 C 90.386719 113.328125 91.007812 113.371094 91.628906 113.402344 C 92.253906 113.433594 92.878906 113.449219 93.5 113.449219 C 94.125 113.449219 94.746094 113.433594 95.371094 113.402344 C 95.992188 113.371094 96.617188 113.328125 97.238281 113.269531 C 97.859375 113.210938 98.476562 113.140625 99.09375 113.050781 C 99.714844 112.960938 100.328125 112.859375 100.941406 112.742188 C 101.554688 112.625 102.164062 112.492188 102.769531 112.347656 C 103.378906 112.203125 103.980469 112.042969 104.578125 111.867188 C 105.175781 111.695312 105.773438 111.503906 106.363281 111.304688 C 106.953125 111.101562 107.539062 110.886719 108.117188 110.65625 C 108.699219 110.425781 109.269531 110.183594 109.839844 109.925781 C 110.410156 109.667969 110.972656 109.398438 111.527344 109.117188 C 112.082031 108.832031 112.632812 108.535156 113.171875 108.226562 C 113.714844 107.917969 114.25 107.59375 114.773438 107.261719 C 115.300781 106.925781 115.820312 106.578125 116.332031 106.21875 C 116.839844 105.863281 117.339844 105.492188 117.835938 105.105469 C 118.328125 104.726562 118.8125 104.332031 119.285156 103.925781 C 119.757812 103.519531 120.222656 103.101562 120.679688 102.675781 C 122.050781 103.71875 123.355469 104.835938 124.597656 106.03125 C 125.839844 107.226562 127.007812 108.484375 128.105469 109.8125 C 129.203125 111.140625 130.21875 112.527344 131.15625 113.972656 C 132.09375 115.417969 132.945312 116.914062 133.710938 118.457031 C 134.476562 120 135.148438 121.582031 135.730469 123.199219 C 136.316406 124.824219 136.804688 126.472656 137.195312 128.148438 C 137.589844 129.824219 137.886719 131.519531 138.082031 133.230469 C 138.28125 134.941406 138.382812 136.660156 138.382812 138.382812 Z M 138.382812 138.382812 " fill-opacity="1" fill-rule="nonzero"/></svg>